# xmcd
#
# Track frame offsets:
#	150
#	13112
#	27690
#	42247
#	52987
#	63750
#	77270
#	86762
#	95830
#	113432
#	123620
#	137777
#	147580
#	161130
#	172672
#	184750
#	196060
#	209950
#	222020
#
# Disc length: 3142 seconds
#
# Revision: 1
# Processed by: cddbd v1.5.1PL0 Copyright (c) Steve Scherf et al.
# Submitted via: CDex 1.50Beta5
#
DISCID=0f0c4413
DTITLE=ミーナ - 太陽はひとりぼっち〜ベスト・オブ・ミーナ
DYEAR=1995
DGENRE=World
TTITLE0=太陽はひとりぼっち
TTITLE1=別離（わかれ）＜イタリア語＞
TTITLE2=別離（わかれ）＜日本語＞
TTITLE3=砂に消えた涙＜イタリア語＞
TTITLE4=砂に消えた涙＜日本語＞
TTITLE5=月影のナポリ
TTITLE6=真実
TTITLE7=しあわせがいっぱい
TTITLE8=青い泡がいっぱい
TTITLE9=太陽の海
TTITLE10=もしも明日
TTITLE11=タ・ラ・タ・タ
TTITLE12=束の間に燃えつきて
TTITLE13=君に涙とほほえみを
TTITLE14=涙に咲く花
TTITLE15=悲しみは空のかなたに＜日本語＞
TTITLE16=愛のひきしお
TTITLE17=うつろな街
TTITLE18=青空に住もう
EXTD=
EXTT0=
EXTT1=
EXTT2=
EXTT3=
EXTT4=
EXTT5=
EXTT6=
EXTT7=
EXTT8=
EXTT9=
EXTT10=
EXTT11=
EXTT12=
EXTT13=
EXTT14=
EXTT15=
EXTT16=
EXTT17=
EXTT18=
PLAYORDER=
